<svg width="180.000000" height="180.000000" viewBox="0 0 180 180" fill="none" xmlns="http://www.w3.org/2000/svg" xmlns:xlink="http://www.w3.org/1999/xlink">
	<desc>
			Created with Pixso.
	</desc>
	<defs>
		<clipPath id="clip305_3741">
			<rect id="AGTECH" width="180.000000" height="180.000000" fill="white" fill-opacity="0"/>
		</clipPath>
	</defs>
	<rect id="AGTECH" width="180.000000" height="180.000000" fill="#FFFFFF" fill-opacity="0"/>
	<g clip-path="url(#clip305_3741)">
		<path id="Vector" d="M118.02 56.41L104.45 56.41L101 50.87L94.32 40.52L78.48 65.12L71.19 76.55L65.25 85.83L57.95 97.2L51.95 106.47L44.66 117.9L31.14 117.9L38.44 106.47L44.37 97.2L51.67 85.83L57.61 76.55L87.53 30L101.11 30L107.73 40.35L114.52 50.87L118.02 56.41ZM157.51 117.9L57.22 117.9L65.3 106.47L71.24 97.2L78.54 85.83L84.54 76.55L91.83 65.12L123.68 65.12L130.98 76.55L98.06 76.55L92.12 85.83L84.82 97.2L78.88 106.47L136.63 106.47L130.69 97.2L96.58 97.2L104.17 85.83L136.92 85.83L144.27 97.2L150.21 106.47L157.51 117.9ZM39.85 150.08L38.21 147.14L29.22 147.14L31.42 143.01L36.06 143.01L32.78 136.85L25.71 150.08L20 150.08L29.84 132.27C30.35 131.3 31.14 130.85 32.16 130.85L33.34 130.85C34.31 130.85 35.1 131.3 35.61 132.27L45.45 150.08L39.85 150.08ZM54.9 150.08C53.43 150.08 52.07 149.86 50.82 149.41C49.58 148.95 48.5 148.27 47.6 147.42C46.69 146.63 45.96 145.62 45.45 144.43C44.94 143.24 44.71 141.94 44.71 140.47C44.71 139.05 44.94 137.7 45.45 136.57C45.96 135.38 46.69 134.36 47.6 133.51C48.5 132.66 49.58 131.98 50.82 131.53C52.07 131.08 53.43 130.85 54.9 130.85L65.19 130.85L65.19 135.77L54.56 135.77C53.88 135.77 53.26 135.89 52.69 136.11C52.07 136.34 51.62 136.68 51.16 137.07C50.77 137.53 50.43 137.98 50.2 138.6C49.97 139.17 49.86 139.79 49.86 140.47C49.86 141.15 49.97 141.77 50.2 142.39C50.43 142.96 50.77 143.41 51.16 143.81C51.62 144.26 52.07 144.54 52.69 144.77C53.26 144.99 53.88 145.11 54.56 145.11L60.27 145.11L60.27 142.5L54.05 142.5L54.05 138.38L65.19 138.38L65.19 150.08L54.9 150.08ZM82.5 150.08L82.5 135.77L75.37 135.77L75.37 130.85L94.72 130.85L94.72 135.77L87.65 135.77L87.65 150.08L82.5 150.08ZM96.98 150.08L96.98 130.85L115.42 130.85L115.42 135.77L102.13 135.77L102.13 145.11L115.48 145.11L115.48 150.08L96.98 150.08ZM128.09 150.08C126.57 150.08 125.21 149.86 123.96 149.41C122.72 148.95 121.64 148.27 120.8 147.42C119.89 146.63 119.16 145.62 118.65 144.43C118.14 143.24 117.85 141.94 117.85 140.47C117.85 139.05 118.14 137.7 118.65 136.57C119.16 135.38 119.89 134.36 120.8 133.51C121.64 132.66 122.72 131.98 123.96 131.53C125.21 131.08 126.57 130.85 128.09 130.85L137.48 130.85L137.48 135.77L127.7 135.77C127.02 135.77 126.4 135.89 125.83 136.11C125.26 136.34 124.76 136.68 124.36 137.07C123.96 137.53 123.62 137.98 123.4 138.6C123.17 139.17 123.06 139.79 123.06 140.47C123.06 141.15 123.17 141.77 123.4 142.39C123.62 142.96 123.96 143.41 124.36 143.81C124.76 144.26 125.26 144.54 125.83 144.77C126.4 144.99 127.02 145.11 127.7 145.11L137.48 145.11L137.48 150.08L128.09 150.08ZM140.37 150.08L140.37 130.85L145.57 130.85L145.57 150.08L140.37 150.08ZM154.85 150.08L154.85 142.62L147.32 142.62L147.32 137.92L154.85 137.92L154.85 130.85L160 130.85L160 150.08L154.85 150.08ZM103.88 142.5L103.88 138.38L115.25 138.38L115.25 142.5L103.88 142.5Z" fill="#828A99" fill-opacity="1.000000" fill-rule="evenodd"/>
	</g>
</svg>
