<svg width="180.000000" height="180.000000" viewBox="0 0 180 180" fill="none" xmlns="http://www.w3.org/2000/svg" xmlns:xlink="http://www.w3.org/1999/xlink">
	<desc>
			Created with Pixso.
	</desc>
	<defs>
		<clipPath id="clip42_1001">
			<rect id="AP" width="180.000000" height="180.000000" fill="white" fill-opacity="0"/>
		</clipPath>
	</defs>
	<rect id="AP" width="180.000000" height="180.000000" fill="#FFFFFF" fill-opacity="0"/>
	<g clip-path="url(#clip42_1001)">
		<path id="Vector" d="M103.01 32.43C98.98 30.78 94.57 29.87 89.94 29.87C70.89 29.87 55.44 45.31 55.44 64.37C55.44 72.03 57.94 79.11 62.16 84.84L62.16 98.98C52.04 90.84 45.57 78.36 45.57 64.37C45.57 39.86 65.43 20 89.94 20C98.46 20 106.42 22.4 113.18 26.57L113.18 62.49C113.18 75.97 104.13 87.09 90.05 87.09C87.21 87.09 84.5 86.58 81.99 85.65L81.99 74.17C84.21 75.92 87 76.97 90.05 76.97C97.21 76.97 103.01 71.17 103.01 64.01L103.01 32.43ZM77.01 96.33C81.04 97.98 85.45 98.89 90.08 98.89C109.13 98.89 124.57 83.45 124.57 64.4C124.57 56.73 122.07 49.65 117.84 43.93L117.84 29.79C127.97 37.92 134.45 50.4 134.45 64.4C134.45 88.9 114.59 108.77 90.08 108.77C81.56 108.77 73.6 106.36 66.83 102.2L66.83 66.28C66.83 52.78 75.89 41.67 89.97 41.67C92.8 41.67 95.52 42.18 98.03 43.12L98.03 54.6C95.81 52.83 93.02 51.78 89.97 51.78C82.81 51.78 77.01 57.59 77.01 64.74L77.01 96.33ZM55.11 141.92C55.11 142.07 55.06 142.17 54.97 142.25C54.89 142.34 54.77 142.38 54.63 142.38L51.82 142.38C51.7 142.38 51.59 142.33 51.51 142.24C51.42 142.16 51.35 142.05 51.32 141.92L50.1 136.89L44.01 136.89L42.78 141.92C42.75 142.05 42.69 142.16 42.6 142.24C42.51 142.33 42.41 142.38 42.28 142.38L39.48 142.38C39.33 142.38 39.22 142.34 39.13 142.25C39.04 142.17 39 142.07 39 141.92C39 141.91 39 141.89 39 141.88C39.01 141.86 39.02 141.83 39.02 141.79L43.37 125.17C43.52 124.56 43.76 124.08 44.05 123.72C44.35 123.37 44.68 123.1 45.03 122.91C45.37 122.73 45.72 122.61 46.09 122.55C46.45 122.5 46.77 122.48 47.05 122.48C47.33 122.48 47.66 122.5 48.02 122.55C48.38 122.61 48.74 122.73 49.08 122.91C49.42 123.1 49.74 123.37 50.05 123.72C50.35 124.08 50.58 124.56 50.73 125.17L55.08 141.79C55.08 141.83 55.09 141.86 55.09 141.88C55.1 141.89 55.11 141.91 55.11 141.92ZM93.03 141.92C93.03 142.07 92.99 142.17 92.9 142.25C92.81 142.34 92.7 142.38 92.55 142.38L89.74 142.38C89.62 142.38 89.52 142.33 89.43 142.24C89.33 142.16 89.28 142.05 89.24 141.92L88.02 136.89L81.92 136.89L80.71 141.92C80.67 142.05 80.61 142.16 80.52 142.24C80.43 142.33 80.32 142.38 80.21 142.38L77.39 142.38C77.26 142.38 77.14 142.34 77.05 142.25C76.96 142.17 76.92 142.07 76.92 141.92C76.92 141.91 76.92 141.89 76.93 141.88C76.94 141.86 76.94 141.83 76.94 141.79L81.29 125.17C81.45 124.56 81.68 124.08 81.98 123.72C82.28 123.37 82.6 123.1 82.94 122.91C83.29 122.73 83.65 122.61 84 122.55C84.37 122.5 84.69 122.48 84.98 122.48C85.26 122.48 85.58 122.5 85.94 122.55C86.31 122.61 86.65 122.73 87 122.91C87.35 123.1 87.67 123.37 87.97 123.72C88.26 124.08 88.5 124.56 88.66 125.17L93.01 141.79C93.01 141.83 93.01 141.86 93.02 141.88C93.03 141.89 93.03 141.91 93.03 141.92ZM126.1 141.56C126.1 141.75 126.04 141.89 125.94 141.96C125.83 142.05 125.7 142.11 125.51 142.17C125.41 142.2 125.24 142.24 124.98 142.28C124.71 142.33 124.41 142.37 124.03 142.42C123.66 142.46 123.25 142.5 122.79 142.53C122.33 142.57 121.84 142.59 121.33 142.59C120.54 142.59 119.69 142.47 118.82 142.24C117.93 142.01 117.13 141.6 116.4 140.99C115.66 140.37 115.07 139.55 114.59 138.5C114.1 137.46 113.86 136.12 113.86 134.48L113.86 130.58C113.86 128.92 114.1 127.56 114.59 126.51C115.07 125.46 115.66 124.63 116.4 124.04C117.13 123.44 117.93 123.02 118.82 122.8C119.69 122.58 120.54 122.48 121.33 122.48C121.84 122.48 122.33 122.49 122.79 122.52C123.25 122.56 123.66 122.6 124.03 122.65C124.41 122.69 124.71 122.74 124.98 122.79C125.24 122.84 125.41 122.88 125.51 122.9C125.7 122.95 125.83 123.02 125.94 123.1C126.04 123.18 126.1 123.31 126.1 123.51L126.1 125.28C126.1 125.44 126.06 125.58 125.99 125.68C125.9 125.79 125.77 125.84 125.57 125.84L125.51 125.84C125.29 125.82 125.01 125.8 124.69 125.77C124.36 125.75 124.01 125.72 123.64 125.7C123.27 125.69 122.88 125.67 122.5 125.66C122.11 125.64 121.74 125.63 121.38 125.63C120.82 125.63 120.3 125.71 119.84 125.88C119.37 126.05 118.96 126.32 118.63 126.71C118.3 127.08 118.03 127.59 117.83 128.23C117.64 128.87 117.54 129.64 117.54 130.58L117.54 134.48C117.54 135.4 117.64 136.17 117.83 136.81C118.03 137.44 118.3 137.96 118.63 138.35C118.96 138.73 119.37 139.01 119.84 139.19C120.3 139.35 120.82 139.44 121.38 139.44C121.74 139.44 122.11 139.43 122.5 139.41C122.88 139.39 123.27 139.37 123.64 139.35C124.01 139.34 124.36 139.31 124.69 139.29C125.01 139.26 125.29 139.25 125.51 139.23L125.57 139.23C125.77 139.23 125.9 139.27 125.99 139.38C126.06 139.49 126.1 139.62 126.1 139.78L126.1 141.56ZM141.02 141.66C141.02 141.86 140.98 141.99 140.91 142.06C140.82 142.13 140.68 142.18 140.49 142.21C140.28 142.25 140.05 142.29 139.79 142.34C139.53 142.38 139.21 142.42 138.83 142.45C138.46 142.49 138 142.52 137.46 142.55C136.92 142.58 136.25 142.59 135.45 142.59C134.59 142.59 133.78 142.52 133.04 142.38C132.3 142.23 131.64 141.96 131.1 141.57C130.55 141.17 130.11 140.61 129.79 139.91C129.47 139.21 129.31 138.29 129.31 137.15L129.31 127.91C129.31 126.77 129.47 125.86 129.79 125.15C130.11 124.44 130.55 123.89 131.1 123.5C131.64 123.1 132.3 122.83 133.04 122.69C133.78 122.54 134.59 122.48 135.45 122.48C136.25 122.48 136.92 122.48 137.46 122.51C138 122.54 138.46 122.57 138.83 122.61C139.21 122.64 139.53 122.69 139.79 122.73C140.05 122.77 140.28 122.81 140.49 122.84C140.68 122.88 140.82 122.94 140.91 123.01C140.98 123.07 141.02 123.21 141.02 123.4L141.02 125.1C141.02 125.24 140.96 125.37 140.86 125.47C140.75 125.58 140.64 125.63 140.49 125.63L135.09 125.63C134.3 125.63 133.76 125.79 133.46 126.11C133.15 126.43 132.99 127.02 132.99 127.91L132.99 130.77L140.17 130.77C140.32 130.77 140.43 130.82 140.54 130.93C140.65 131.03 140.7 131.16 140.7 131.3L140.7 133.21C140.7 133.35 140.65 133.47 140.54 133.58C140.43 133.68 140.32 133.74 140.17 133.74L132.99 133.74L132.99 137.15C132.99 138.04 133.15 138.64 133.46 138.96C133.76 139.27 134.3 139.44 135.09 139.44L140.49 139.44C140.64 139.44 140.75 139.49 140.86 139.59C140.96 139.7 141.02 139.82 141.02 139.97L141.02 141.66ZM68.23 141.66C68.23 141.86 68.19 141.99 68.11 142.06C68.02 142.13 67.89 142.18 67.7 142.21C67.5 142.27 67.22 142.32 66.86 142.36C66.5 142.41 66.11 142.44 65.68 142.48C65.26 142.52 64.82 142.54 64.38 142.56C63.94 142.58 63.54 142.59 63.19 142.59C62.33 142.59 61.52 142.52 60.78 142.38C60.03 142.23 59.39 141.96 58.85 141.57C58.3 141.17 57.87 140.61 57.55 139.91C57.23 139.21 57.07 138.29 57.07 137.15L57.07 123.22C57.07 123.07 57.12 122.95 57.23 122.84C57.34 122.74 57.46 122.69 57.6 122.69L60.22 122.69C60.36 122.69 60.49 122.74 60.59 122.84C60.7 122.95 60.76 123.07 60.76 123.22L60.76 137.15C60.76 138.04 60.9 138.64 61.2 138.96C61.5 139.27 62.04 139.44 62.82 139.44L67.7 139.44C67.84 139.44 67.96 139.49 68.06 139.59C68.17 139.7 68.23 139.82 68.23 139.97L68.23 141.66ZM74.42 141.85C74.42 141.99 74.38 142.11 74.27 142.21C74.16 142.32 74.04 142.38 73.89 142.38L71.27 142.38C71.13 142.38 71.01 142.32 70.91 142.21C70.8 142.11 70.74 141.99 70.74 141.85L70.74 123.19C70.74 123.05 70.8 122.93 70.91 122.83C71.01 122.74 71.13 122.69 71.27 122.69L73.89 122.69C74.04 122.69 74.16 122.74 74.27 122.83C74.38 122.93 74.42 123.05 74.42 123.19L74.42 141.85ZM110.41 141.32C110.41 141.62 110.32 141.87 110.11 142.07C109.9 142.27 109.65 142.38 109.35 142.38L106.67 142.38C106.36 142.38 106.07 142.34 105.79 142.25C105.52 142.17 105.28 141.89 105.06 141.42L99.17 128.52C99.11 128.37 99.03 128.31 98.94 128.31C98.85 128.31 98.81 128.37 98.81 128.52L98.81 141.85C98.81 141.99 98.76 142.11 98.66 142.21C98.57 142.32 98.44 142.38 98.31 142.38L96.05 142.38C95.91 142.38 95.78 142.32 95.68 142.21C95.57 142.11 95.52 141.99 95.52 141.85L95.52 123.75C95.52 123.45 95.62 123.2 95.83 123C96.03 122.79 96.28 122.69 96.58 122.69L99.44 122.69C99.72 122.69 99.95 122.74 100.12 122.84C100.28 122.95 100.45 123.18 100.61 123.54L106.78 137.15C106.84 137.3 106.9 137.37 106.99 137.37C107.09 137.37 107.13 137.29 107.13 137.12L107.13 123.19C107.13 122.85 107.3 122.69 107.63 122.69L109.91 122.69C110.25 122.69 110.41 122.85 110.41 123.19L110.41 141.32ZM47.48 126C47.44 125.84 47.4 125.73 47.34 125.67C47.29 125.61 47.2 125.58 47.05 125.58C46.91 125.58 46.81 125.61 46.76 125.67C46.71 125.73 46.67 125.84 46.63 126L44.72 133.87L49.38 133.87L47.48 126ZM85.4 126C85.36 125.84 85.31 125.73 85.27 125.67C85.21 125.61 85.11 125.58 84.98 125.58C84.83 125.58 84.74 125.61 84.68 125.67C84.63 125.73 84.58 125.84 84.55 126L82.65 133.87L87.31 133.87L85.4 126ZM48.85 151.22C48.85 151.97 48.71 152.59 48.45 153.09C48.18 153.61 47.82 154.01 47.38 154.33C46.93 154.64 46.42 154.85 45.83 154.98C45.24 155.11 44.62 155.18 43.97 155.18C43.74 155.18 43.48 155.17 43.19 155.15C42.89 155.14 42.65 155.12 42.46 155.11L42.46 159.52C42.46 159.61 42.43 159.69 42.37 159.75C42.3 159.82 42.22 159.86 42.14 159.86L40.45 159.86C40.35 159.86 40.28 159.82 40.21 159.75C40.14 159.69 40.1 159.61 40.1 159.52L40.1 147.89C40.1 147.73 40.15 147.6 40.25 147.53C40.34 147.46 40.48 147.41 40.65 147.39C41.09 147.32 41.6 147.26 42.18 147.23C42.75 147.19 43.35 147.17 43.97 147.17C44.62 147.17 45.24 147.23 45.83 147.35C46.42 147.48 46.94 147.69 47.38 148C47.82 148.3 48.18 148.7 48.45 149.2C48.71 149.7 48.85 150.33 48.85 151.07L48.85 151.22ZM59.81 159.66C59.81 159.79 59.75 159.86 59.61 159.86L57.55 159.86C57.46 159.86 57.38 159.82 57.35 159.75C57.3 159.69 57.25 159.61 57.21 159.52L54.77 155.02L54.54 155.02C54.31 155.02 54.06 155.01 53.76 155C53.47 154.98 53.23 154.96 53.04 154.95L53.04 159.52C53.04 159.61 53 159.69 52.94 159.75C52.88 159.82 52.81 159.86 52.71 159.86L51.02 159.86C50.94 159.86 50.86 159.82 50.79 159.75C50.72 159.69 50.69 159.61 50.69 159.52L50.69 147.89C50.69 147.73 50.73 147.6 50.83 147.53C50.93 147.46 51.06 147.41 51.23 147.39C51.67 147.32 52.18 147.26 52.75 147.23C53.33 147.19 53.92 147.17 54.55 147.17C55.2 147.17 55.82 147.24 56.41 147.36C57 147.5 57.51 147.71 57.95 148C58.41 148.28 58.76 148.68 59.02 149.17C59.29 149.66 59.42 150.26 59.42 150.98L59.42 151.14C59.42 152.04 59.22 152.77 58.8 153.34C58.39 153.89 57.83 154.32 57.12 154.59L59.77 159.52C59.8 159.55 59.81 159.6 59.81 159.66ZM70.66 154.72C70.66 155.66 70.54 156.46 70.3 157.12C70.05 157.79 69.72 158.33 69.3 158.75C68.86 159.18 68.36 159.48 67.77 159.69C67.19 159.89 66.55 160 65.85 160C65.15 160 64.52 159.89 63.93 159.69C63.34 159.48 62.84 159.18 62.41 158.75C61.98 158.33 61.65 157.79 61.4 157.12C61.16 156.46 61.05 155.66 61.05 154.72L61.05 152.44C61.05 151.51 61.16 150.71 61.4 150.05C61.65 149.37 61.98 148.83 62.41 148.41C62.84 147.99 63.34 147.68 63.93 147.48C64.52 147.27 65.15 147.17 65.85 147.17C66.55 147.17 67.19 147.27 67.77 147.48C68.36 147.68 68.86 147.99 69.3 148.41C69.72 148.83 70.05 149.37 70.3 150.05C70.54 150.71 70.66 151.51 70.66 152.44L70.66 154.72ZM81.96 154.82C81.96 156.5 81.51 157.78 80.58 158.67Q80.52 158.72 80.46 158.78Q79.1 160 76.65 160C76.34 160 76.02 159.99 75.69 159.98C75.36 159.97 75.03 159.95 74.72 159.93C74.41 159.9 74.13 159.88 73.88 159.86C73.62 159.83 73.43 159.81 73.32 159.79C73.16 159.76 73.06 159.72 72.98 159.64C72.91 159.56 72.87 159.44 72.87 159.26L72.87 147.89C72.87 147.73 72.91 147.6 72.98 147.52C73.06 147.45 73.16 147.39 73.32 147.37C73.43 147.35 73.62 147.32 73.88 147.3C74.13 147.28 74.41 147.25 74.72 147.24C75.03 147.22 75.36 147.2 75.69 147.19C76.02 147.18 76.34 147.17 76.65 147.17C78.36 147.17 79.67 147.61 80.58 148.5C81.51 149.37 81.96 150.66 81.96 152.34L81.96 154.82ZM103.27 159.33C103.27 159.46 103.24 159.54 103.17 159.6C103.11 159.65 103.01 159.69 102.89 159.73C102.83 159.75 102.71 159.77 102.56 159.8C102.39 159.83 102.19 159.85 101.95 159.88C101.72 159.91 101.45 159.94 101.16 159.96C100.87 159.99 100.55 160 100.22 160C99.72 160 99.18 159.92 98.62 159.77C98.06 159.63 97.55 159.36 97.08 158.97C96.62 158.58 96.23 158.06 95.93 157.39Q95.46 156.39 95.46 154.82L95.46 152.34C95.46 151.28 95.62 150.42 95.93 149.74C96.23 149.08 96.62 148.55 97.08 148.16C97.55 147.78 98.06 147.52 98.62 147.38C99.18 147.24 99.72 147.17 100.22 147.17C100.55 147.17 100.87 147.18 101.16 147.21C101.45 147.23 101.72 147.25 101.95 147.27C102.19 147.3 102.39 147.34 102.56 147.37C102.71 147.41 102.83 147.43 102.89 147.44C103.01 147.48 103.11 147.51 103.17 147.56C103.24 147.61 103.27 147.71 103.27 147.82L103.27 148.96C103.27 149.06 103.24 149.14 103.19 149.21C103.15 149.28 103.06 149.32 102.93 149.32L102.89 149.32C102.75 149.31 102.58 149.29 102.36 149.27C102.16 149.26 101.94 149.24 101.7 149.23C101.46 149.22 101.22 149.21 100.98 149.19C100.73 149.18 100.49 149.18 100.26 149.18C99.91 149.18 99.57 149.23 99.27 149.34C98.97 149.44 98.72 149.63 98.51 149.87C98.29 150.11 98.12 150.42 98 150.83C97.87 151.24 97.82 151.75 97.82 152.34L97.82 154.82C97.82 155.41 97.87 155.9 98 156.31C98.12 156.72 98.29 157.05 98.51 157.29C98.72 157.54 98.97 157.71 99.27 157.82C99.57 157.93 99.91 157.98 100.26 157.98C100.49 157.98 100.73 157.97 100.98 157.96L101.7 157.93C101.94 157.92 102.16 157.9 102.36 157.88C102.58 157.88 102.75 157.86 102.89 157.85L102.93 157.85C103.06 157.85 103.15 157.88 103.19 157.95C103.24 158.02 103.27 158.1 103.27 158.2L103.27 159.33ZM129.25 154.72C129.25 155.66 129.14 156.46 128.9 157.12C128.66 157.79 128.32 158.33 127.9 158.75C127.46 159.18 126.96 159.48 126.37 159.69C125.78 159.89 125.15 160 124.45 160C123.75 160 123.12 159.89 122.53 159.69C121.95 159.48 121.44 159.18 121.01 158.75C120.58 158.33 120.25 157.79 120.01 157.12C119.77 156.46 119.65 155.66 119.65 154.72L119.65 152.44C119.65 151.51 119.77 150.71 120.01 150.05C120.25 149.37 120.58 148.83 121.01 148.41C121.44 147.99 121.95 147.68 122.53 147.48C123.12 147.27 123.75 147.17 124.45 147.17C125.15 147.17 125.78 147.27 126.37 147.48C126.96 147.68 127.46 147.99 127.9 148.41C128.32 148.83 128.66 149.37 128.9 150.05C129.14 150.71 129.25 151.51 129.25 152.44L129.25 154.72ZM93.35 155.22C93.35 156.11 93.24 156.86 93.01 157.47C92.77 158.09 92.46 158.57 92.04 158.94C91.63 159.32 91.14 159.58 90.57 159.75C90 159.91 89.38 160 88.71 160C88.03 160 87.41 159.91 86.84 159.75C86.27 159.58 85.78 159.32 85.36 158.94C84.96 158.57 84.64 158.09 84.41 157.47C84.18 156.86 84.06 156.11 84.06 155.22L84.06 147.62C84.06 147.53 84.09 147.46 84.16 147.4C84.23 147.33 84.3 147.3 84.4 147.3L86.07 147.3C86.16 147.3 86.24 147.33 86.31 147.4C86.37 147.46 86.4 147.53 86.4 147.62L86.4 155.22C86.4 155.71 86.44 156.13 86.51 156.49C86.58 156.83 86.69 157.13 86.88 157.37C87.05 157.61 87.28 157.79 87.57 157.89C87.87 158.01 88.24 158.07 88.71 158.07C89.15 158.07 89.53 158.01 89.83 157.89C90.12 157.79 90.37 157.61 90.54 157.37C90.71 157.13 90.84 156.83 90.9 156.49C90.97 156.13 91 155.71 91 155.22L91 147.62C91 147.53 91.04 147.46 91.11 147.4C91.17 147.33 91.25 147.3 91.34 147.3L93.02 147.3C93.1 147.3 93.18 147.33 93.25 147.4C93.31 147.46 93.35 147.53 93.35 147.62L93.35 155.22ZM113.41 148.96C113.41 149.05 113.37 149.12 113.3 149.18C113.24 149.24 113.16 149.26 113.07 149.26L110.11 149.26L110.11 159.52C110.11 159.61 110.08 159.69 110.02 159.75C109.95 159.82 109.86 159.86 109.78 159.86L108.1 159.86C108.01 159.86 107.94 159.82 107.87 159.75C107.8 159.69 107.76 159.61 107.76 159.52L107.76 149.26L104.81 149.26C104.72 149.26 104.64 149.24 104.57 149.18C104.5 149.12 104.48 149.05 104.48 148.96L104.48 147.62C104.48 147.53 104.5 147.46 104.57 147.4C104.64 147.33 104.72 147.3 104.81 147.3L113.07 147.3C113.16 147.3 113.24 147.33 113.3 147.4C113.37 147.46 113.41 147.53 113.41 147.62L113.41 148.96ZM117.45 159.52C117.45 159.61 117.41 159.69 117.34 159.75C117.27 159.82 117.2 159.86 117.11 159.86L115.43 159.86C115.35 159.86 115.27 159.82 115.2 159.75C115.13 159.69 115.1 159.61 115.1 159.52L115.1 147.62C115.1 147.53 115.13 147.46 115.2 147.4C115.27 147.33 115.35 147.3 115.43 147.3L117.11 147.3C117.2 147.3 117.27 147.33 117.34 147.4C117.41 147.46 117.45 147.53 117.45 147.62L117.45 159.52ZM140.96 159.19C140.96 159.37 140.91 159.53 140.77 159.67C140.65 159.79 140.48 159.86 140.29 159.86L138.58 159.86C138.38 159.86 138.2 159.83 138.02 159.78C137.84 159.74 137.69 159.55 137.55 159.25L133.8 151.02C133.75 150.93 133.71 150.89 133.65 150.89C133.59 150.89 133.57 150.93 133.57 151.02L133.57 159.52C133.57 159.61 133.53 159.69 133.48 159.75C133.41 159.82 133.34 159.86 133.24 159.86L131.81 159.86C131.72 159.86 131.64 159.82 131.58 159.75C131.51 159.69 131.47 159.61 131.47 159.52L131.47 147.98C131.47 147.78 131.54 147.63 131.66 147.5C131.8 147.37 131.95 147.3 132.14 147.3L133.98 147.3C134.15 147.3 134.29 147.34 134.4 147.41C134.51 147.48 134.61 147.62 134.72 147.84L138.65 156.53C138.69 156.62 138.73 156.66 138.79 156.66C138.84 156.66 138.87 156.61 138.87 156.52L138.87 147.62C138.87 147.41 138.98 147.3 139.19 147.3L140.65 147.3C140.86 147.3 140.96 147.41 140.96 147.62L140.96 159.19ZM46.49 151.06C46.49 150.35 46.28 149.85 45.86 149.55C45.44 149.24 44.81 149.1 43.96 149.1C43.87 149.1 43.76 149.1 43.61 149.1C43.48 149.1 43.33 149.11 43.19 149.12C43.03 149.12 42.9 149.13 42.77 149.13C42.64 149.14 42.53 149.15 42.46 149.16L42.46 153.2C42.52 153.2 42.63 153.2 42.77 153.21C42.91 153.21 43.05 153.22 43.21 153.23C43.36 153.23 43.51 153.24 43.65 153.24C43.79 153.25 43.89 153.25 43.96 153.25C44.87 153.25 45.52 153.09 45.92 152.74C46.3 152.4 46.49 151.89 46.49 151.22L46.49 151.06ZM79.62 152.34C79.62 151.72 79.54 151.19 79.39 150.78C79.23 150.37 79.02 150.04 78.76 149.8C78.49 149.56 78.18 149.38 77.82 149.29C77.45 149.19 77.06 149.14 76.64 149.14C76.32 149.14 76.05 149.15 75.83 149.16C75.6 149.17 75.4 149.18 75.22 149.19L75.22 157.98C75.4 157.99 75.6 158 75.83 158.02C76.05 158.03 76.32 158.03 76.64 158.03C77.06 158.03 77.45 157.98 77.82 157.88C78.18 157.8 78.49 157.62 78.76 157.38C79.02 157.13 79.23 156.82 79.39 156.4C79.54 155.99 79.62 155.47 79.62 154.83L79.62 152.34ZM57.08 150.98C57.08 150.35 56.86 149.89 56.44 149.61C56.02 149.32 55.38 149.18 54.54 149.18C54.44 149.18 54.33 149.18 54.19 149.19C54.05 149.19 53.9 149.2 53.76 149.2C53.62 149.21 53.48 149.21 53.35 149.22C53.22 149.23 53.11 149.24 53.04 149.25L53.04 153.05C53.1 153.05 53.21 153.05 53.35 153.06C53.49 153.07 53.63 153.07 53.79 153.08C53.94 153.08 54.09 153.09 54.22 153.09L54.54 153.09C55.42 153.09 56.06 152.96 56.47 152.68C56.87 152.39 57.08 151.88 57.08 151.14L57.08 150.98ZM68.31 152.44C68.31 151.31 68.11 150.49 67.71 149.98C67.31 149.47 66.68 149.21 65.85 149.21C65.02 149.21 64.39 149.47 64 149.98C63.59 150.49 63.39 151.31 63.39 152.44L63.39 154.72C63.39 155.85 63.59 156.67 64 157.18C64.39 157.69 65.02 157.95 65.85 157.95C66.68 157.95 67.31 157.69 67.71 157.18C68.11 156.67 68.31 155.85 68.31 154.72L68.31 152.44ZM126.91 152.44C126.91 151.31 126.71 150.49 126.31 149.98C125.91 149.47 125.28 149.21 124.45 149.21C123.62 149.21 123 149.47 122.59 149.98C122.19 150.49 122 151.31 122 152.44L122 154.72C122 155.85 122.19 156.67 122.59 157.18C123 157.69 123.62 157.95 124.45 157.95C125.28 157.95 125.91 157.69 126.31 157.18C126.71 156.67 126.91 155.85 126.91 154.72L126.91 152.44Z" fill="#5C8EE6" fill-opacity="1.000000" fill-rule="evenodd"/>
	</g>
</svg>
